<?xml version="1.0" encoding="utf-8"?>
<!-- Generator: Adobe Illustrator 16.0.3, SVG Export Plug-In . SVG Version: 6.00 Build 0)  -->
<!DOCTYPE svg PUBLIC "-//W3C//DTD SVG 1.1//EN" "http://www.w3.org/Graphics/SVG/1.1/DTD/svg11.dtd">
<svg version="1.1" id="Calque_1" xmlns="http://www.w3.org/2000/svg" xmlns:xlink="http://www.w3.org/1999/xlink" x="0px" y="0px"
	 width="208.3px" height="13.1px" viewBox="0 0 208.3 13.1" style="enable-background:new 0 0 208.3 13.1;" xml:space="preserve">
<style type="text/css">
<![CDATA[
	.st0{fill:#2581C4;}
	.st1{fill:#5BBEEA;}
	.st2{fill:none;stroke:#2581C4;stroke-miterlimit:10;}
	.st3{fill:none;}
	.st4{fill:#DD78A6;}
]]>
</style>
<g>
	<circle class="st1" cx="104.2" cy="6.6" r="4.7"/>
	<g>
		<polygon class="st1" points="25.4,6.6 28.5,4.6 31.7,6.6 28.5,8.5 		"/>
		<polygon class="st1" points="2.9,6.6 19.8,4.6 22.9,6.6 19.8,8.5 		"/>
		<polygon class="st1" points="96.7,6.6 59.8,4.6 51.7,6.6 59.8,8.5 		"/>
		<polygon class="st1" points="33.3,6.6 40.8,4.4 48.3,6.6 40.8,8.7 		"/>
	</g>
	<g>
		<polygon class="st1" points="182.9,6.6 179.8,4.6 176.7,6.6 179.8,8.5 		"/>
		<polygon class="st1" points="205.4,6.6 188.5,4.6 185.4,6.6 188.5,8.5 		"/>
		<polygon class="st1" points="111.7,6.6 148.5,4.6 156.7,6.6 148.5,8.5 		"/>
		<polygon class="st1" points="175.1,6.6 167.6,4.4 160.1,6.6 167.6,8.7 		"/>
	</g>
</g>
</svg>
