<?xml version="1.0" encoding="utf-8"?>
<!-- Generator: Adobe Illustrator 16.0.3, SVG Export Plug-In . SVG Version: 6.00 Build 0)  -->
<!DOCTYPE svg PUBLIC "-//W3C//DTD SVG 1.1//EN" "http://www.w3.org/Graphics/SVG/1.1/DTD/svg11.dtd">
<svg version="1.1" id="Calque_1" xmlns="http://www.w3.org/2000/svg" xmlns:xlink="http://www.w3.org/1999/xlink" x="0px" y="0px"
	 width="250px" height="51px" viewBox="0 0 250 51" style="enable-background:new 0 0 250 51;" xml:space="preserve">
<style type="text/css">
<![CDATA[
	.st0{fill:#2581C4;}
	.st1{fill:#5BBEEA;}
	.st2{fill:none;stroke:#2581C4;stroke-miterlimit:10;}
	.st3{fill:none;}
	.st4{fill:#DD78A6;}
]]>
</style>
<g>
	<circle class="st1" cx="125" cy="42.4" r="5.3"/>
	<g>
		<polygon class="st1" points="86,42.4 100.7,38.2 115.5,42.4 100.7,46.6 		"/>
		<polygon class="st1" points="164,42.4 149.3,46.6 134.5,42.4 149.3,38.2 		"/>
	</g>
	<g>
		<polygon class="st1" points="152.6,14.8 145.1,28.2 131.7,35.7 139.2,22.2 		"/>
	</g>
	<g>
		<polygon class="st1" points="125,3.4 129.2,18.1 125,32.9 120.8,18.1 		"/>
	</g>
	<g>
		<polygon class="st1" points="97.4,14.8 110.8,22.2 118.3,35.7 104.9,28.2 		"/>
	</g>
	<polygon class="st1" points="1.6,42.4 67,38.2 81.8,42.4 67,46.6 	"/>
	<polygon class="st1" points="248.4,42.4 183,38.2 168.2,42.4 183,46.6 	"/>
</g>
</svg>
