<?xml version="1.0" encoding="utf-8"?>
<!-- Generator: Adobe Illustrator 16.0.3, SVG Export Plug-In . SVG Version: 6.00 Build 0)  -->
<!DOCTYPE svg PUBLIC "-//W3C//DTD SVG 1.1//EN" "http://www.w3.org/Graphics/SVG/1.1/DTD/svg11.dtd">
<svg version="1.1" id="Calque_1" xmlns="http://www.w3.org/2000/svg" xmlns:xlink="http://www.w3.org/1999/xlink" x="0px" y="0px"
	 width="47.3px" height="32.5px" viewBox="0 0 47.3 32.5" style="enable-background:new 0 0 47.3 32.5;" xml:space="preserve">
<style type="text/css">
<![CDATA[
	.st0{fill:#2581C4;}
	.st1{fill:#5BBEEA;}
	.st2{fill:none;stroke:#2581C4;stroke-miterlimit:10;}
	.st3{fill:none;}
	.st4{fill:#DD78A6;}
]]>
</style>
<g>
	<path class="st0" d="M4.5,16.1l2.9,0l0,0L28,0.6l0,0C21,3.2,8.8,7.7,0.6,10.7L4.5,16.1z"/>
	<path class="st0" d="M0.5,21.9c8.3,3,20.5,7.4,27.5,10l0,0L7.4,16.6l0,0l-3.1,0L0.5,21.9z"/>
	<path class="st0" d="M7.5,16.3c0,0.1,0,0.1-0.1,0.2l0,0.1l4.2,0l21.9,9.6l-9.9-9.6c0,0,0,0-0.1,0l-11.8,0c-0.1,0-0.2-0.1-0.2-0.2
		c0-0.1,0.1-0.2,0.2-0.2l11.8,0c0.1,0,0.2,0.1,0.2,0.2c0,0.1,0,0.2-0.1,0.2l3.5,0l4.4,3.6l2.5-2.1l0,0c0,0,0,0,0,0c0,0,0,0,0.1-0.1
		c0,0,0,0,0,0c0,0,0.1,0,0.1,0c0,0,0,0,0,0l0,0l0.4,0.1l0.2,0l2.4,0.4l0.1,0l0.3,0.1l0,0c0,0,0.1,0,0.1,0.1c0,0,0,0.1,0.1,0.1h0
		l0.7,1.7l8.1-3.8l-5.8,0l0.1-0.1l0.2-0.1l-0.2-0.1L41,16l5.8,0l-8.2-3.7L38,13.8l0,0c0,0,0,0,0,0.1c0,0,0,0,0,0
		c0,0-0.1,0.1-0.1,0.1c0,0,0,0-0.1,0l-0.3,0.1l-0.2,0l-2.5,0.4l-0.2,0l-0.4,0.1l0,0h0c0,0,0,0-0.1,0c0,0-0.1,0-0.1,0c0,0,0,0,0,0
		c0,0,0,0,0,0l-2.5-2L27.5,16l-3.7,0l9.7-9.7l-21.7,9.7l-4.4,0l0,0.1C7.5,16.2,7.5,16.3,7.5,16.3"/>
</g>
</svg>
