<?xml version="1.0" encoding="utf-8"?>
<!-- Generator: Adobe Illustrator 16.0.3, SVG Export Plug-In . SVG Version: 6.00 Build 0)  -->
<!DOCTYPE svg PUBLIC "-//W3C//DTD SVG 1.1//EN" "http://www.w3.org/Graphics/SVG/1.1/DTD/svg11.dtd">
<svg version="1.1" id="Calque_1" xmlns="http://www.w3.org/2000/svg" xmlns:xlink="http://www.w3.org/1999/xlink" x="0px" y="0px"
	 width="47.3px" height="32.5px" viewBox="0 0 47.3 32.5" style="enable-background:new 0 0 47.3 32.5;" xml:space="preserve">
<style type="text/css">
<![CDATA[
	.st0{fill:#2581C4;}
	.st1{fill:#5BBEEA;}
	.st2{fill:none;stroke:#2581C4;stroke-miterlimit:10;}
	.st3{fill:none;}
	.st4{fill:#DD78A6;}
]]>
</style>
<g>
	<path class="st0" d="M42.8,16.1l-2.9,0l0,0L19.4,0.6l0,0c7,2.6,19.2,7.1,27.4,10.1L42.8,16.1z"/>
	<path class="st0" d="M46.8,21.9c-8.3,3-20.5,7.4-27.5,10l0,0l20.6-15.3l0,0l3.1,0L46.8,21.9z"/>
	<path class="st0" d="M39.8,16.3c0,0.1,0,0.1,0.1,0.2l0,0.1l-4.2,0l-21.9,9.6l9.9-9.6c0,0,0,0,0.1,0l11.8,0c0.1,0,0.2-0.1,0.2-0.2
		c0-0.1-0.1-0.2-0.2-0.2l-11.8,0c-0.1,0-0.2,0.1-0.2,0.2c0,0.1,0,0.2,0.1,0.2l-3.5,0l-4.4,3.6L13.2,18l0,0c0,0,0,0,0,0
		c0,0,0,0-0.1-0.1c0,0,0,0,0,0c0,0-0.1,0-0.1,0c0,0,0,0,0,0l0,0L12.5,18l-0.2,0L10,18.4l-0.1,0l-0.3,0.1l0,0c0,0-0.1,0-0.1,0.1
		c0,0,0,0.1-0.1,0.1h0l-0.7,1.7l-8.1-3.8l5.8,0l-0.1-0.1L6,16.3l0.2-0.1L6.4,16l-5.8,0l8.2-3.7l0.6,1.6l0,0c0,0,0,0,0,0.1
		c0,0,0,0,0,0c0,0,0.1,0.1,0.1,0.1c0,0,0,0,0.1,0l0.3,0.1l0.2,0l2.5,0.4l0.2,0l0.4,0.1l0,0h0c0,0,0,0,0.1,0c0,0,0.1,0,0.1,0
		c0,0,0,0,0,0c0,0,0,0,0,0l2.5-2l4.1,3.5l3.7,0l-9.7-9.7l21.7,9.7l4.4,0l0,0.1C39.9,16.2,39.8,16.3,39.8,16.3"/>
</g>
</svg>
